# Blender 3.6.1
# www.blender.org
mtllib player.mtl
o Cube.001
v 0.360997 -0.284511 -0.432814
v 0.183257 0.654570 -0.432814
v 0.550430 0.001669 -0.286842
v 0.353981 0.394977 -0.316004
v -0.000000 -0.333623 -0.432814
v -0.000000 0.096824 -0.700352
v -0.000000 0.001669 0.117186
v -0.000000 0.551669 -0.020497
v 0.095523 0.810551 -0.451959
v 0.094252 0.810551 -0.253708
v -0.000000 0.810551 -0.467101
v -0.000000 0.810551 -0.253749
v 0.095523 0.902083 -0.451959
v 0.094252 0.902084 -0.253708
v -0.000000 0.902083 -0.467101
v -0.000000 0.902084 -0.253749
v 0.742663 0.998425 -0.451959
v 0.741393 0.998425 -0.253708
v -0.000000 0.998425 -0.523070
v -0.000000 0.998425 -0.197780
v 0.742663 2.621613 -0.451959
v 0.741393 2.621613 -0.253709
v -0.000000 2.621613 -0.523070
v -0.000000 2.621613 -0.197780
v 0.523730 2.936878 -0.451959
v 0.522459 2.936878 -0.253709
v -0.000000 2.936878 -0.523070
v -0.000000 2.936878 -0.197780
v 0.579858 3.720335 -0.451959
v 0.578587 3.720335 -0.253709
v 0.056558 3.720335 -0.523070
v 0.056558 3.720335 -0.197780
v 0.579858 4.787895 -0.451959
v 0.578587 4.787895 -0.253709
v 0.056558 4.787895 -0.523070
v 0.056558 4.787895 -0.197780
v -0.360997 -0.284511 -0.432814
v -0.183257 0.654570 -0.432814
v -0.550430 0.001669 -0.286842
v -0.353981 0.394977 -0.316004
v -0.095523 0.810551 -0.451959
v -0.094252 0.810551 -0.253708
v -0.095523 0.902083 -0.451959
v -0.094252 0.902084 -0.253708
v -0.742663 0.998425 -0.451959
v -0.741393 0.998425 -0.253708
v -0.742663 2.621613 -0.451959
v -0.741393 2.621613 -0.253709
v -0.523730 2.936878 -0.451959
v -0.522459 2.936878 -0.253709
v -0.579858 3.720335 -0.451959
v -0.578587 3.720335 -0.253709
v -0.056558 3.720335 -0.523070
v -0.056558 3.720335 -0.197780
v -0.579858 4.787895 -0.451959
v -0.578587 4.787895 -0.253709
v -0.056558 4.787895 -0.523070
v -0.056558 4.787895 -0.197780
vn 0.0664 -0.4879 0.8704
vn 0.6760 0.1790 0.7149
vn -1.0000 -0.0000 -0.0000
vn 0.6868 0.3323 0.6465
vn 0.6869 0.1300 -0.7150
vn 0.6740 0.1276 -0.7276
vn -0.0004 -0.0000 1.0000
vn 0.8713 0.4908 0.0056
vn 0.4045 0.2841 -0.8693
vn 0.1472 -0.9891 0.0009
vn 1.0000 -0.0000 0.0064
vn 0.1566 -0.0000 -0.9877
vn 0.0953 -0.0000 -0.9954
vn 0.1358 -0.4977 -0.8567
vn 0.0671 -0.4510 0.8900
vn 0.0751 0.0522 0.9958
vn 0.0752 -0.0000 0.9972
vn 0.9974 -0.0715 0.0064
vn 0.8214 0.5704 0.0053
vn 0.1345 -0.0000 -0.9909
vn 0.1065 -0.0000 0.9943
vn 0.1345 -0.0097 -0.9909
vn 0.1065 -0.0076 0.9943
vn -0.9974 0.0720 -0.0000
vn -0.0000 1.0000 -0.0000
vn 0.1347 -0.0000 -0.9909
vn -0.0664 -0.4879 0.8704
vn -0.5576 0.3348 0.7596
vn -0.6868 0.3323 0.6465
vn -0.6869 0.1300 -0.7150
vn -0.0716 -0.5265 -0.8471
vn 0.0004 -0.0000 1.0000
vn -0.8440 0.5344 -0.0460
vn -0.4045 0.2841 -0.8693
vn -0.1472 -0.9891 0.0009
vn -1.0000 -0.0000 0.0064
vn -0.1566 -0.0000 -0.9877
vn -0.0953 -0.0000 -0.9954
vn -0.1358 -0.4977 -0.8567
vn 0.0004 -0.5023 0.8647
vn -0.0751 0.0522 0.9958
vn -0.0752 -0.0000 0.9972
vn -0.9974 -0.0715 0.0064
vn -0.8214 0.5704 0.0053
vn -0.0951 0.0660 -0.9933
vn -0.1065 -0.0000 0.9943
vn -0.1345 -0.0097 -0.9909
vn -0.1064 -0.0077 0.9943
vn 0.9974 0.0720 -0.0000
vn 1.0000 -0.0000 -0.0000
vn -0.1347 -0.0000 -0.9909
vn 0.3569 -0.7976 0.4862
vn 0.5576 0.3348 0.7596
vn -0.0003 0.6694 0.7429
vn 0.4438 0.1563 -0.8824
vn 0.0716 -0.5265 -0.8471
vn 0.8440 0.5344 -0.0460
vn 0.1565 -0.0332 -0.9871
vn 0.0803 -0.5392 -0.8383
vn -0.0004 -0.5023 0.8647
vn 0.1064 -0.0000 0.9943
vn 0.0951 0.0660 -0.9933
vn 0.1346 -0.0096 -0.9908
vn 0.1064 -0.0077 0.9943
vn -0.3569 -0.7976 0.4862
vn -0.6760 0.1790 0.7149
vn 0.0003 0.6694 0.7429
vn -0.4438 0.1563 -0.8824
vn -0.6740 0.1276 -0.7276
vn -0.8713 0.4908 0.0056
vn -0.1565 -0.0332 -0.9871
vn -0.0803 -0.5392 -0.8383
vn -0.0671 -0.4510 0.8900
vn -0.1064 -0.0000 0.9943
vn -0.1345 -0.0000 -0.9909
vn -0.1346 -0.0096 -0.9908
vn -0.1065 -0.0076 0.9943
vt 0.875000 0.500000
vt 0.625000 0.500000
vt 0.625000 0.750000
vt 0.375000 0.750000
vt 0.375000 1.000000
vt 0.625000 1.000000
vt 0.625000 0.000000
vt 0.375000 0.000000
vt 0.375000 0.250000
vt 0.375000 0.500000
vt 0.125000 0.500000
vt 0.125000 0.750000
vt 0.625000 0.250000
vt 0.875000 0.750000
s 0
usemtl Material.001
f 5/1/1 1/2/1 3/3/1
f 4/4/2 8/5/2 7/6/2
f 7/7/3 8/8/3 6/9/3
f 8/5/4 4/4/4 10/4/4
f 1/2/5 2/10/5 4/4/5
f 6/9/6 2/10/6 1/2/6
f 12/5/7 10/4/7 14/4/7
f 8/8/3 12/8/3 11/9/3
f 2/10/8 9/10/8 10/4/8
f 2/10/9 6/9/9 11/9/9
f 13/10/10 17/10/10 18/4/10
f 11/9/3 12/8/3 16/8/3
f 10/4/11 9/10/11 13/10/11
f 9/10/12 11/9/12 15/9/12
f 17/10/13 19/9/13 23/9/13
f 13/10/14 15/9/14 19/9/14
f 14/4/15 18/4/15 20/5/15
f 16/8/3 20/8/3 19/9/3
f 24/5/16 22/4/16 26/4/16
f 20/5/17 18/4/17 22/4/17
f 19/9/3 20/8/3 24/8/3
f 18/4/11 17/10/11 21/10/11
f 25/10/18 29/10/18 30/4/18
f 23/9/3 24/8/3 28/8/3
f 22/4/19 21/10/19 25/10/19
f 23/9/20 27/9/20 25/10/20
f 32/5/21 30/4/21 34/4/21
f 25/10/22 27/9/22 31/9/22
f 26/4/23 30/4/23 32/5/23
f 27/9/24 28/8/24 32/8/24
f 33/10/25 35/11/25 36/12/25
f 31/9/3 32/8/3 36/8/3
f 30/4/11 29/10/11 33/10/11
f 29/10/26 31/9/26 35/9/26
f 39/3/27 37/2/27 5/1/27
f 40/4/28 39/3/28 7/6/28
f 42/4/29 40/4/29 8/5/29
f 40/4/30 38/10/30 37/2/30
f 6/9/31 5/13/31 37/2/31
f 44/4/32 42/4/32 12/5/32
f 38/10/33 40/4/33 42/4/33
f 11/9/34 6/9/34 38/10/34
f 43/10/35 44/4/35 46/4/35
f 43/10/36 41/10/36 42/4/36
f 15/9/37 11/9/37 41/10/37
f 23/9/38 19/9/38 45/10/38
f 19/9/39 15/9/39 43/10/39
f 44/4/40 16/5/40 20/5/40
f 50/4/41 48/4/41 24/5/41
f 48/4/42 46/4/42 20/5/42
f 47/10/36 45/10/36 46/4/36
f 49/10/43 50/4/43 52/4/43
f 49/10/44 47/10/44 48/4/44
f 23/9/45 47/10/45 49/10/45
f 56/4/46 52/4/46 54/5/46
f 53/9/47 27/9/47 49/10/47
f 50/4/48 28/5/48 54/5/48
f 54/8/49 28/8/49 27/9/49
f 58/12/25 57/11/25 55/10/25
f 58/8/50 54/8/50 53/9/50
f 55/10/36 51/10/36 52/4/36
f 57/9/51 53/9/51 51/10/51
f 5/1/52 3/3/52 7/14/52
f 4/4/53 7/6/53 3/3/53
f 7/7/3 6/9/3 5/13/3
f 8/5/54 10/4/54 12/5/54
f 1/2/55 4/4/55 3/3/55
f 6/9/56 1/2/56 5/13/56
f 12/5/7 14/4/7 16/5/7
f 8/8/3 11/9/3 6/9/3
f 2/10/57 10/4/57 4/4/57
f 2/10/58 11/9/58 9/10/58
f 13/10/10 18/4/10 14/4/10
f 11/9/3 16/8/3 15/9/3
f 10/4/11 13/10/11 14/4/11
f 9/10/12 15/9/12 13/10/12
f 17/10/13 23/9/13 21/10/13
f 13/10/59 19/9/59 17/10/59
f 14/4/60 20/5/60 16/5/60
f 16/8/3 19/9/3 15/9/3
f 24/5/61 26/4/61 28/5/61
f 20/5/17 22/4/17 24/5/17
f 19/9/3 24/8/3 23/9/3
f 18/4/11 21/10/11 22/4/11
f 25/10/18 30/4/18 26/4/18
f 23/9/3 28/8/3 27/9/3
f 22/4/19 25/10/19 26/4/19
f 23/9/62 25/10/62 21/10/62
f 32/5/21 34/4/21 36/5/21
f 25/10/63 31/9/63 29/10/63
f 26/4/64 32/5/64 28/5/64
f 27/9/24 32/8/24 31/9/24
f 33/10/25 36/12/25 34/4/25
f 31/9/3 36/8/3 35/9/3
f 30/4/11 33/10/11 34/4/11
f 29/10/26 35/9/26 33/10/26
f 39/3/65 5/1/65 7/14/65
f 40/4/66 7/6/66 8/5/66
f 42/4/67 8/5/67 12/5/67
f 40/4/68 37/2/68 39/3/68
f 6/9/69 37/2/69 38/10/69
f 44/4/32 12/5/32 16/5/32
f 38/10/70 42/4/70 41/10/70
f 11/9/71 38/10/71 41/10/71
f 43/10/35 46/4/35 45/10/35
f 43/10/36 42/4/36 44/4/36
f 15/9/37 41/10/37 43/10/37
f 23/9/38 45/10/38 47/10/38
f 19/9/72 43/10/72 45/10/72
f 44/4/73 20/5/73 46/4/73
f 50/4/74 24/5/74 28/5/74
f 48/4/42 20/5/42 24/5/42
f 47/10/36 46/4/36 48/4/36
f 49/10/43 52/4/43 51/10/43
f 49/10/44 48/4/44 50/4/44
f 23/9/75 49/10/75 27/9/75
f 56/4/46 54/5/46 58/5/46
f 53/9/76 49/10/76 51/10/76
f 50/4/77 54/5/77 52/4/77
f 54/8/49 27/9/49 53/9/49
f 58/12/25 55/10/25 56/4/25
f 58/8/50 53/9/50 57/9/50
f 55/10/36 52/4/36 56/4/36
f 57/9/51 51/10/51 55/10/51
